<svg width="208" height="123" viewBox="0 0 208 123" fill="none" xmlns="http://www.w3.org/2000/svg">
<path d="M207.6 0H0V122.8H207.6V0Z" fill="#19414B"/>
<path d="M17.4 68H21.6V88.3H17.4V68Z" fill="white"/>
<path d="M25.5 68H29.4L33.1 78.4L36.7 68H40.6V88.3H36.6V77.2L34.4 83.9H31.7L29.5 77.2V88.3H25.5V68Z" fill="white"/>
<path d="M49.4001 68H53.6L55.3 81.2L58.1 68H61.4001L64.2 81.2L65.9001 68H70.1L66.3001 88.3H62.5L59.7001 75.8L56.9001 88.3H53.1L49.3 68H49.4001Z" fill="white"/>
<path d="M75.7 84.4L74.9 88.3H70.4L76.4 68H79.9L85.9 88.3H81.4L80.5 84.4H75.8H75.7ZM78.1 73.6L76.5 81.1H79.8L78.2 73.6H78.1Z" fill="white"/>
<path d="M88.5 67.9984H92.7V84.7984H98.9V88.1984H88.5V67.8984V67.9984Z" fill="white"/>
<path d="M102.1 68H107.4C112.4 68 114.2 69.6 114.2 74.4V81.9C114.2 86.6 112.4 88.3 107.4 88.3H102.1V68ZM107.5 84.9C109.5 84.9 109.9 84.4 109.9 81.2V75.1C109.9 71.9 109.6 71.4 107.5 71.4H106.2V85H107.5V84.9Z" fill="white"/>
<path d="M121.4 84.4L120.6 88.3H116.1L122.1 68H125.6L131.6 88.3H127.1L126.2 84.4H121.5H121.4ZM123.8 73.6L122.2 81.1H125.5L123.9 73.6H123.8Z" fill="white"/>
<path d="M145.3 81.9992C145.3 84.0992 145 85.1992 144.3 86.2992C143.3 87.8992 141.7 88.5992 139.4 88.5992C137.1 88.5992 135.5 87.8992 134.5 86.4992C133.8 85.3992 133.4 83.8992 133.4 81.1992V75.0992C133.4 72.1992 133.8 70.5992 134.7 69.4992C135.7 68.2992 137.2 67.6992 139.3 67.6992C141.4 67.6992 143.4 68.5992 144.4 70.2992C144.9 71.1992 145.1 72.1992 145.1 73.8992H141.3C141.1 71.6992 140.7 71.0992 139.5 71.0992C138.3 71.0992 137.7 71.9992 137.7 75.3992V80.7992C137.7 84.1992 138.1 85.0992 139.6 85.0992C141.1 85.0992 141.5 84.1992 141.6 81.8992H145.4L145.3 81.9992Z" fill="white"/>
<path d="M148.6 68H152.8V76.3H156.4V68H160.6V88.3H156.4V79.8H152.8V88.3H148.6V68Z" fill="white"/>
<path d="M164.5 67.9984H174.8V71.3984H168.7V76.2984H173.9V79.6984H168.7V84.7984H175V88.1984H164.5V67.8984V67.9984Z" fill="white"/>
<path d="M182.6 88.1984H178.4V67.8984H184C186.6 67.8984 187.8 68.1984 188.7 69.1984C189.7 70.1984 190.1 71.5984 190.1 73.8984C190.1 77.4984 189.5 78.7984 187.5 79.6984L190.9 88.1984H186.2L183.4 80.0984H182.6V88.1984ZM183.7 76.8984C184.6 76.8984 185 76.7984 185.4 76.2984C185.8 75.7984 185.9 75.0984 185.9 74.1984C185.9 71.9984 185.4 71.2984 183.8 71.2984H182.5V76.8984H183.7Z" fill="white"/>
<path d="M17.4 95.1004H21.7C22.9 95.1004 23.5 95.3004 24.1 95.8004C24.7 96.3004 25 97.2004 25 98.1004C25 99.0004 24.5 100.2 23.5 100.7C24.1 101 24.3 101.1 24.5 101.4C25 101.9 25.2 102.8 25.2 103.7C25.2 104.6 24.8 105.7 24.2 106.2C23.7 106.7 23 106.8 22 106.8H17.5V94.9004L17.4 95.1004ZM21.6 100.5C22.4 100.5 22.8 100.4 23.2 100C23.6 99.6004 23.9 99.0004 23.9 98.3004C23.9 97.6004 23.6 96.9004 23.1 96.5004C22.7 96.2004 22.3 96.1004 21.6 96.1004H18.4V100.6H21.6V100.5ZM21.9 106.2C22.7 106.2 23.1 106 23.5 105.7C23.9 105.3 24.2 104.6 24.2 103.9C24.2 103.2 23.9 102.3 23.5 101.9C23.1 101.6 22.7 101.4 22 101.4H18.6V106.2H22H21.9Z" fill="white"/>
<path d="M30 104.3L29.1 107H28L32.4 95.0996H33.4L37.8 107H36.7L35.8 104.3H30.3H30ZM32.8 96.4996L30.3 103.4H35.3L32.8 96.4996Z" fill="white"/>
<path d="M40.7 95.0996H41.7V106.1H47.5V107H40.7V95.0996Z" fill="white"/>
<path d="M52.2 95.9996H48.7V95.0996H56.7V95.9996H53.2V107H52.2V95.9996Z" fill="white"/>
<path d="M60.6 95.0996H67.4V95.9996H61.7V100.5H66.6V101.4H61.7V106.1H67.4V107H60.6V95.0996Z" fill="white"/>
<path d="M71.2 95.0996H72.2L78.5 105.2V95.0996H79.5V107H78.5L72.2 96.8996V107H71.2V95.0996Z" fill="white"/>
<path d="M84.3 105C84.8 105.8 85.9 106.3 87.3 106.3C88.7 106.3 90.3 105.4 90.3 103.9C90.3 102.4 90 102.6 89.5 102.2C89 101.9 89 101.8 87.2 101.4C84.8 100.8 83.8 99.9 83.8 98.1C83.8 96.3 85.1 95 87.3 95C89.5 95 90 95.5 90.6 96.3L89.8 96.8C89.3 96.2 88.4 95.8 87.3 95.8C86.2 95.8 84.8 96.6 84.8 98C84.8 99.4 85.6 100 87.7 100.5C89.3 100.9 89.6 101 90.2 101.4C90.9 101.9 91.3 102.7 91.3 103.8C91.3 105.9 89.8 107.1 87.3 107.1C84.8 107.1 84.2 106.5 83.5 105.5L84.3 105Z" fill="white"/>
<path d="M94.1 95.0996H95.1L97.5 105.3L100.3 95.0996H101L103.8 105.3L106.2 95.0996H107.2L104.2 107H103.4L100.6 96.9996L97.8 107H97L94 95.0996H94.1Z" fill="white"/>
<path d="M111.2 95.0996H112.2V107H111.2V95.0996Z" fill="white"/>
<path d="M117 95.0996H118V106.1H123.8V107H117V95.0996Z" fill="white"/>
<path d="M190 95.0996H130.4V107H190V95.0996Z" fill="#CDB9A0"/>
</svg>
